<?xml version="1.0" encoding="utf-8"?>
<!DOCTYPE svg PUBLIC "-//W3C//DTD SVG 1.1//EN" "http://www.w3.org/Graphics/SVG/1.1/DTD/svg11.dtd">
<svg version="1.1" xmlns="http://www.w3.org/2000/svg" xmlns:xlink="http://www.w3.org/1999/xlink" x="0px" y="0px" viewBox="0 0 1000 1000" enable-background="new 0 0 1000 1000" xml:space="preserve">
<g><path d="M500,10C229.3,10,10,229.5,10,500c0,270.7,219.5,490,490,490c270.7,0,490-219.5,490-490C990,229.3,770.7,10,500,10z M661.7,615.6c12.8,12.8,12.8,33.5,0,46.2c-6.4,6.4-14.7,9.6-23.1,9.6s-16.8-3.2-23.1-9.6L500,546.2L384.4,661.7c-6.3,6.4-14.7,9.6-23.1,9.6c-8.3,0-16.7-3.2-23.1-9.6c-12.8-12.8-12.8-33.5,0-46.2L453.8,500L338.3,384.4c-12.8-12.8-12.8-33.5,0-46.2c12.8-12.7,33.5-12.8,46.2,0L500,453.8l115.6-115.6c12.8-12.8,33.5-12.8,46.2,0c12.8,12.8,12.8,33.5,0,46.2L546.2,500L661.7,615.6z"/></g>
</svg>
